<svg width="256" height="199.99999999999997" xmlns="http://www.w3.org/2000/svg">
 <g>
  <title>Layer 1</title>
  <g id="svg_1">
   <rect fill="#ff88ff" x="111.59024" y="90.04324" width="100" height="19.90062" id="svg_33" transform="matrix(-0.720957, 0.707107, -0.720957, -0.707107, 344.874, 53.9325)" stroke="#ff88ff"/>
   <rect fill="#ff88ff" x="49.45425" y="87.8" width="100" height="19.90062" id="svg_40" transform="matrix(0.720957, 0.707107, -0.720957, 0.707107, 97.0773, -41.9788)" stroke="#ff88ff"/>
   <rect fill="#ff88ff" x="8.81236" y="33.69386" width="100" height="19.90062" id="svg_39" transform="matrix(-0.720957, 0.707107, -0.720957, -0.707107, 126.306, 45.7977)" stroke="#ff88ff"/>
   <rect fill="#ff88ff" x="149.3804" y="49.35788" width="100" height="19.90062" id="svg_41" transform="matrix(0.720957, 0.707107, -0.720957, 0.707107, 98.4881, -126.319)" stroke="#ff88ff"/>
   <ellipse fill="#ff88ff" cx="235.00004" cy="91.44154" id="svg_42" rx="10.19588" ry="10" stroke="#ff88ff"/>
   <ellipse fill="#ff88ff" cx="88.08606" cy="21.59863" id="svg_43" rx="10.19588" ry="10" stroke="#ff88ff"/>
   <ellipse fill="#ff88ff" cx="16.32069" cy="91.91335" id="svg_44" rx="10.19588" ry="10" stroke="#ff88ff"/>
   <ellipse fill="#ff88ff" cx="163.62913" cy="21.44154" id="svg_45" rx="10.19588" ry="10" stroke="#ff88ff"/>
  </g>
  <ellipse fill="#ff88ff" cx="126.58626" cy="56.71464" id="svg_50" rx="17" ry="17.34726" stroke="#ff88ff"/>
  <ellipse fill="#ff88ff" cx="199.9179" cy="114.12071" id="svg_35" rx="17" ry="17" stroke="#ff88ff"/>
  <path fill="#ff88ff" d="m115.53149,89.63889l28.76469,-3.86009c1.86421,-1.85068 -8.1303,8.3948 -8.46595,18.86569c-0.33565,10.47089 17.53365,25.38295 15.08968,24.04821l-35.38841,-7.54437l0,0c-2.89168,0 -5.23585,-7.05363 -5.23585,-15.75472c0,-8.70109 2.34417,-15.75472 5.23585,-15.75472l-0.00001,0z" id="svg_2" transform="rotate(-90, 130.723, 107.169)"/>
  <path fill="#ff88ff" d="m164.17466,34.62686l29.03435,-3.36571c1.86421,-1.85068 -8.39996,7.90042 -8.73561,18.37131c-0.33565,10.47089 17.53365,25.38295 15.08968,24.04821l-35.38841,-7.54437l0,0c-2.89168,0 -5.23585,-7.05363 -5.23585,-15.75472c0,-8.70109 2.34417,-15.75472 5.23585,-15.75472l-0.00001,0z" id="svg_4" transform="rotate(180, 179.366, 52.3991)"/>
  <path transform="rotate(90, 51.1893, 72.8273)" fill="#ff88ff" d="m35.99811,55.05505l29.03435,-3.36571c1.86421,-1.85068 -8.39996,7.90042 -8.73561,18.37131c-0.33565,10.47089 17.53365,25.38295 15.08968,24.04821l-35.38841,-7.54437l0,0c-2.89168,0 -5.23585,-7.05363 -5.23585,-15.75472c0,-8.70109 2.34417,-15.75472 5.23585,-15.75472l-0.00001,0z" id="svg_5"/>
  <path fill="#ff88ff" d="m58.85894,39.81253l29.03435,-3.36571c1.86421,-1.85068 -8.39996,7.90042 -8.73561,18.37131c-0.33565,10.47089 17.53365,25.38295 15.08968,24.04821l-35.38841,-7.54437l0,0c-2.89168,0 -5.23585,-7.05363 -5.23585,-15.75472c0,-8.70109 2.34417,-15.75472 5.23585,-15.75472l-0.00001,0z" id="svg_6"/>
  <path fill="#ff88ff" d="m180.18621,56.67079l29.03435,-3.36571c1.86421,-1.85068 -8.39996,7.90042 -8.73561,18.37131c-0.33565,10.47089 17.53365,25.38295 15.08968,24.04821l-35.38841,-7.54437l0,0c-2.89168,0 -5.23585,-7.05363 -5.23585,-15.75472c0,-8.70109 2.34417,-15.75472 5.23585,-15.75472l-0.00001,0z" id="svg_7" transform="rotate(90, 195.377, 74.4431)"/>
 </g>

</svg>
