<?xml version="1.0" encoding="UTF-8" standalone="no"?>

<svg
   width="64.633232mm"
   height="36.72831mm"
   viewBox="0 0 64.633231 36.72831"
   version="1.1"
   id="svg5"
   inkscape:version="1.2.2 (732a01da63, 2022-12-09, custom)"
   sodipodi:docname="logo1.3.svg"
   xmlns:inkscape="http://www.inkscape.org/namespaces/inkscape"
   xmlns:sodipodi="http://sodipodi.sourceforge.net/DTD/sodipodi-0.dtd"
   xmlns="http://www.w3.org/2000/svg"
   xmlns:svg="http://www.w3.org/2000/svg">
  <sodipodi:namedview
     id="namedview7"
     pagecolor="#ffffff"
     bordercolor="#000000"
     borderopacity="0.25"
     inkscape:showpageshadow="2"
     inkscape:pageopacity="0.0"
     inkscape:pagecheckerboard="0"
     inkscape:deskcolor="#d1d1d1"
     inkscape:document-units="mm"
     showgrid="true"
     inkscape:zoom="2.0000001"
     inkscape:cx="69.499998"
     inkscape:cy="126.75"
     inkscape:window-width="1854"
     inkscape:window-height="1016"
     inkscape:window-x="66"
     inkscape:window-y="27"
     inkscape:window-maximized="1"
     inkscape:current-layer="layer2">
    <inkscape:grid
       type="xygrid"
       id="grid9"
       visible="true"
       originx="-52.556343"
       originy="-212.15592" />
    <inkscape:grid
       type="axonomgrid"
       id="grid113"
       visible="false"
       originx="-52.556343"
       originy="-212.15592" />
  </sodipodi:namedview>
  <defs
     id="defs2">
    <inkscape:perspective
       sodipodi:type="inkscape:persp3d"
       inkscape:vp_x="0.80968882 : -158.30757 : 1"
       inkscape:vp_y="0 : 999.99998 : 0"
       inkscape:vp_z="209.99999 : -111.7717 : 1"
       inkscape:persp3d-origin="105 : -161.2717 : 1"
       id="perspective229" />
  </defs>
  <g
     inkscape:label="Capa 1"
     inkscape:groupmode="layer"
     id="layer1"
     transform="translate(-52.556345,-212.15592)">
    <path
       style="fill:#000000;stroke-width:0.264583"
       d="m 73.609638,132.50951 c -8.656341,4.99774 -8.561533,4.943 -8.561533,4.943"
       id="path569" />
    <path
       style="fill:#000000;stroke-width:0.264583"
       d="m 73.609641,132.50951 c -8.65635,4.99774 -8.56154,4.943 -8.56154,4.943"
       id="path581" />
    <a
       id="a598"
       transform="translate(0.00417015,0.0146347)">
      <path
         style="fill:#000000;stroke-width:0.264583"
         d="m 73.581622,132.49389 -4.31962,2.49394 0.0181,0.0313 4.3052,2.48562 0.004,-0.007 4.34632,-2.50936 0.008,0.0137 z"
         id="path583" />
      <path
         style="fill:#000000;stroke-width:0.264583"
         d="m 77.916056,134.99152 -4.31962,2.49394 0.0181,0.0313 4.3052,2.48561 0.004,-0.007 4.34632,-2.50936 0.008,0.0137 z"
         id="path585" />
      <path
         style="fill:#000000;stroke-width:0.264583"
         d="m 82.255543,137.48657 -4.31961,2.49394 0.0181,0.0313 4.30519,2.48561 0.004,-0.007 4.34632,-2.50935 0.008,0.0137 z"
         id="path587" />
      <path
         style="fill:#000000;stroke-width:0.264583"
         d="m 69.271342,130.01607 -4.31962,2.49394 0.0181,0.0313 4.3052,2.48561 0.004,-0.007 4.34632,-2.50935 0.008,0.0137 z"
         id="path591" />
    </a>
    <path
       style="fill:#000000;stroke-width:0.264583"
       d="m 112.62843,135.02959 4.31962,-2.49394 -0.0181,-0.0313 -4.3052,-2.48562 -0.004,0.007 -4.34632,2.50936 -0.008,-0.0137 z"
       id="path600" />
    <path
       style="fill:#000000;stroke-width:0.264583"
       d="m 108.29399,132.53196 4.31962,-2.49394 -0.0181,-0.0313 -4.3052,-2.48561 -0.004,0.007 -4.34632,2.50936 -0.008,-0.0137 z"
       id="path602" />
    <path
       style="fill:#000000;stroke-width:0.264583"
       d="m 103.93178,130.02247 -4.319621,2.49394 0.0181,0.0313 4.305201,2.48561 0.004,-0.007 4.34632,-2.50936 0.008,0.0137 z"
       id="path602-9" />
    <path
       style="fill:#000000;stroke-width:0.264583"
       d="m 103.95451,130.03691 4.31961,-2.49394 -0.0181,-0.0313 -4.30519,-2.48561 -0.004,0.007 -4.346321,2.50935 -0.008,-0.0137 z"
       id="path604" />
    <path
       style="fill:#000000;stroke-width:0.264583"
       d="m 99.609019,127.53897 4.319621,-2.49394 -0.0181,-0.0313 -4.305201,-2.48561 -0.004,0.007 -4.346323,2.50935 -0.008,-0.0137 z"
       id="path606" />
    <path
       style="fill:#000000;stroke-width:0.264583"
       d="m 116.93871,137.50741 4.31962,-2.49394 -0.0181,-0.0313 -4.3052,-2.48561 -0.004,0.007 -4.34632,2.50935 -0.008,-0.0137 z"
       id="path608" />
    <path
       style="fill:#000000;stroke-width:0.264583"
       d="m 99.605909,132.53121 -4.319618,2.49394 0.0181,0.0313 4.305198,2.48561 0.004,-0.007 4.346321,-2.50936 0.008,0.0137 z"
       id="path698" />
    <path
       style="fill:#000000;stroke-width:0.264583"
       d="m 95.293096,135.0124 -4.31962,2.49394 0.0181,0.0313 4.3052,2.48561 0.004,-0.007 4.346323,-2.50936 0.008,0.0137 z"
       id="path700" />
    <path
       style="fill:#000000;stroke-width:0.264583"
       d="m 90.958253,137.49922 -4.31962,2.49394 0.0181,0.0313 4.3052,2.48561 0.004,-0.007 4.34632,-2.50936 0.008,0.0137 z"
       id="path702" />
    <path
       style="fill:#000000;stroke-width:0.264583"
       d="m 103.93178,130.02247 -4.319621,2.49394 0.0181,0.0313 4.305201,2.48561 0.004,-0.007 4.34632,-2.50936 0.008,0.0137 z"
       id="path704" />
    <path
       style="fill:#000000;stroke-width:0.264583"
       d="m 99.605909,132.53121 -4.319618,2.49394 0.0181,0.0313 4.305198,2.48561 0.004,-0.007 4.346321,-2.50936 0.008,0.0137 z"
       id="path706" />
    <path
       style="fill:#000000;stroke-width:0.264583"
       d="m 95.293096,135.0124 -4.31962,2.49394 0.0181,0.0313 4.3052,2.48561 0.004,-0.007 4.346323,-2.50936 0.008,0.0137 z"
       id="path708" />
    <path
       style="fill:#000000;stroke-width:0.264583"
       d="m 90.932644,137.49965 -4.31962,2.49394 0.0181,0.0313 4.3052,2.48561 0.004,-0.007 4.34632,-2.50936 0.008,0.0137 z"
       id="path710" />
    <path
       style="fill:#000000;stroke-width:0.264583"
       d="m 73.64122,127.54471 4.31962,-2.49394 -0.0181,-0.0313 -4.3052,-2.48561 -0.004,0.007 -4.34632,2.50936 -0.008,-0.0137 z"
       id="path712" />
    <path
       style="fill:#000000;stroke-width:0.264583"
       d="m 69.27901,125.03522 -4.31962,2.49394 0.0181,0.0313 4.3052,2.48561 0.004,-0.007 4.34632,-2.50936 0.008,0.0137 z"
       id="path714" />
    <path
       style="fill:#000000;stroke-width:0.264583"
       d="m 64.95314,127.54396 -4.31962,2.49394 0.0181,0.0313 4.3052,2.48561 0.004,-0.007 4.34632,-2.50936 0.008,0.0137 z"
       id="path716" />
    <path
       style="fill:#000000;stroke-width:0.264583"
       d="m 60.64032,130.02515 -4.31962,2.49394 0.0181,0.0313 4.3052,2.48561 0.004,-0.007 4.34632,-2.50936 0.008,0.0137 z"
       id="path718" />
    <path
       style="fill:#000000;stroke-width:0.264583"
       d="m 56.30548,132.51197 -4.31962,2.49394 0.0181,0.0313 4.3052,2.48561 0.004,-0.007 4.34632,-2.50936 0.008,0.0137 z"
       id="path720" />
    <ellipse
       style="fill:#000000;stroke-width:0.264583"
       id="path744"
       cx="86.614464"
       cy="132.00128"
       rx="6.0990849"
       ry="3.510843" />
    <ellipse
       style="fill:#000000;stroke-width:0.264583"
       id="ellipse746"
       cx="103.23929"
       cy="141.40724"
       rx="6.0990849"
       ry="3.510843" />
    <path
       style="fill:#000000;stroke-width:0.264583"
       d="m 76.083553,182.49057 c -8.496904,7.44227 -8.40384,7.36075 -8.40384,7.36075"
       id="path939" />
    <path
       style="fill:#000000;stroke-width:0.264583"
       d="m 76.083553,182.49057 c -8.496914,7.44227 -8.40385,7.36075 -8.40385,7.36075"
       id="path941" />
    <a
       id="a951"
       transform="matrix(0.99249362,0,0,1.5144048,3.035791,-18.313886)"
       style="stroke-width:0.815672">
      <path
         style="fill:#000000;stroke-width:0.215813"
         d="m 73.581622,132.49389 -4.31962,2.49394 0.0181,0.0313 4.3052,2.48562 0.004,-0.007 4.34632,-2.50936 0.008,0.0137 z"
         id="path943" />
      <path
         style="fill:#000000;stroke-width:0.215813"
         d="m 77.916056,134.99152 -4.31962,2.49394 0.0181,0.0313 4.3052,2.48561 0.004,-0.007 4.34632,-2.50936 0.008,0.0137 z"
         id="path945" />
      <path
         style="fill:#000000;stroke-width:0.215813"
         d="m 82.255543,137.48657 -4.31961,2.49394 0.0181,0.0313 4.30519,2.48561 0.004,-0.007 4.34632,-2.50935 0.008,0.0137 z"
         id="path947" />
      <path
         style="fill:#000000;stroke-width:0.215813"
         d="m 69.271342,130.01607 -4.31962,2.49394 0.0181,0.0313 4.3052,2.48561 0.004,-0.007 4.34632,-2.50935 0.008,0.0137 z"
         id="path949" />
    </a>
    <path
       style="fill:#000000;stroke-width:0.264583"
       d="m 114.38368,186.24329 4.24006,-3.71379 -0.0178,-0.0466 -4.2259,-3.70141 -0.004,0.0104 -4.26627,3.73675 -0.008,-0.0204 z"
       id="path953" />
    <path
       style="fill:#000000;stroke-width:0.264583"
       d="m 110.12907,182.524 4.24006,-3.71379 -0.0178,-0.0466 -4.2259,-3.70139 -0.004,0.0104 -4.26626,3.73676 -0.008,-0.0204 z"
       id="path955" />
    <path
       style="fill:#000000;stroke-width:0.264583"
       d="m 105.84721,178.78705 -4.24006,3.71379 0.0178,0.0466 4.22591,3.70139 0.004,-0.0104 4.26626,-3.73676 0.008,0.0204 z"
       id="path957" />
    <path
       style="fill:#000000;stroke-width:0.264583"
       d="m 105.86952,178.80855 4.24005,-3.71379 -0.0178,-0.0466 -4.22589,-3.70139 -0.004,0.0104 -4.26627,3.73674 -0.008,-0.0204 z"
       id="path959" />
    <path
       style="fill:#000000;stroke-width:0.264583"
       d="m 101.60407,175.08881 4.24006,-3.7138 -0.0178,-0.0466 -4.22591,-3.70139 -0.004,0.0104 -4.266271,3.73674 -0.0079,-0.0204 z"
       id="path961" />
    <path
       style="fill:#000000;stroke-width:0.264583"
       d="m 118.61457,189.93308 4.24006,-3.7138 -0.0178,-0.0466 -4.2259,-3.70138 -0.004,0.0104 -4.26627,3.73674 -0.008,-0.0204 z"
       id="path963" />
    <path
       style="fill:#000000;stroke-width:0.264583"
       d="m 101.60101,182.52288 -4.240057,3.7138 0.01777,0.0466 4.225907,3.70139 0.004,-0.0104 4.26627,-3.73675 0.008,0.0204 z"
       id="path965" />
    <path
       style="fill:#000000;stroke-width:0.264583"
       d="m 97.367637,186.21769 -4.240059,3.71379 0.01777,0.0466 4.225905,3.70139 0.0039,-0.0104 4.266267,-3.73676 0.008,0.0204 z"
       id="path967" />
    <path
       id="path969"
       style="fill:#000000;stroke-width:0.264583"
       d="m 93.112663,189.92071 -4.240052,3.71398 0.01757,0.0465 4.223515,3.69952 c 10e-4,-0.001 0.0019,-0.002 0.0031,-0.003 5.5e-4,-5e-4 9.33e-4,-6.4e-4 0.0015,-0.001 l 0.0015,-0.004 4.258655,-3.73001 z m 4.265889,3.72173 0.0155,0.0134 -0.0078,-0.0202 z" />
    <path
       style="fill:#000000;stroke-width:0.264583"
       d="m 105.84721,178.78705 -4.24006,3.71379 0.0178,0.0466 4.22591,3.70139 0.004,-0.0104 4.26626,-3.73676 0.008,0.0204 z"
       id="path971" />
    <path
       style="fill:#000000;stroke-width:0.264583"
       d="m 101.60101,182.52288 -4.240057,3.7138 0.01777,0.0466 4.225907,3.70139 0.004,-0.0104 4.26627,-3.73675 0.008,0.0204 z"
       id="path973" />
    <path
       style="fill:#000000;stroke-width:0.264583"
       d="m 97.367637,186.21769 -4.240059,3.71379 0.01777,0.0466 4.225905,3.70139 0.0039,-0.0104 4.266267,-3.73676 0.008,0.0204 z"
       id="path975" />
    <path
       id="path977"
       style="fill:#000000;stroke-width:0.264583"
       d="m 93.087341,189.92174 -4.240051,3.71347 0.01809,0.0465 4.225582,3.70158 0.0041,-0.0103 4.258655,-3.73001 z m 4.266407,3.72122 0.0155,0.0134 -0.0078,-0.0202 z" />
    <path
       style="fill:#000000;stroke-width:0.264583"
       d="m 76.114551,175.09735 4.24006,-3.71379 -0.01777,-0.0466 -4.225905,-3.70139 -0.0039,0.0104 -4.266268,3.73675 -0.0079,-0.0204 z"
       id="path979" />
    <path
       style="fill:#000000;stroke-width:0.264583"
       d="m 71.832686,171.3604 -4.240059,3.7138 0.01777,0.0466 4.225905,3.70139 0.0039,-0.0104 4.266267,-3.73675 0.0079,0.0204 z"
       id="path981" />
    <path
       style="fill:#000000;stroke-width:0.264583"
       d="m 67.586492,175.09624 -4.240059,3.71379 0.01777,0.0466 4.225905,3.70139 0.0039,-0.0104 4.266267,-3.73675 0.0079,0.0204 z"
       id="path983" />
    <path
       style="fill:#000000;stroke-width:0.264583"
       d="m 63.353108,178.79104 -4.24006,3.7138 0.01777,0.0466 4.225905,3.70138 0.0039,-0.0104 4.266268,-3.73676 0.0079,0.0204 z"
       id="path985" />
    <path
       style="fill:#000000;stroke-width:0.264583"
       d="m 59.098109,182.49423 -4.24006,3.7138 0.01777,0.0466 4.225905,3.70138 0.0039,-0.0104 4.266268,-3.73675 0.0079,0.0204 z"
       id="path987" />
    <ellipse
       style="fill:#000000;stroke-width:0.264583"
       id="ellipse989"
       cx="88.971649"
       cy="183.15845"
       rx="5.9867492"
       ry="5.2280908" />
    <ellipse
       style="fill:#000000;stroke-width:0.264583"
       id="ellipse991"
       cx="105.72147"
       cy="196.74635"
       rx="5.9867492"
       ry="5.2280908" />
    <path
       id="path993"
       style="fill:#000000;stroke-width:0.264583"
       d="m 93.087341,189.92174 -4.240051,3.71347 0.01809,0.0465 4.225582,3.70158 0.0041,-0.0103 4.258655,-3.73001 z m 4.266407,3.72122 0.0155,0.0134 -0.0078,-0.0202 z" />
    <path
       id="path995"
       style="fill:#000000;stroke-width:0.264583"
       d="m 88.841089,193.62177 -4.258138,3.74448 0.01809,0.047 4.243668,3.73208 0.0036,-0.0103 4.245218,-3.73259 c 4.88e-4,-6.6e-4 9.51e-4,-0.001 0.0016,-0.002 0.0012,-0.001 0.0027,-0.003 0.0041,-0.004 7e-4,-5e-4 0.0014,-0.001 0.0021,-0.002 6.83e-4,-7.9e-4 0.0014,-0.002 0.0021,-0.002 6.5e-4,-5e-4 0.0015,-9e-4 0.0021,-0.002 5.92e-4,-6.5e-4 9.5e-4,-0.002 0.0015,-0.002 0.0012,-0.001 0.0022,-0.003 0.0031,-0.004 10e-4,-0.001 0.0021,-0.003 0.0036,-0.004 0.001,-0.001 0.0019,-0.002 0.0031,-0.003 0.0011,-0.001 0.0024,-0.002 0.0036,-0.003 0.0011,-8.3e-4 0.0021,-0.002 0.0031,-0.003 z" />
    <ellipse
       style="fill:#000000;stroke-width:0.264583"
       id="ellipse1271"
       cx="88.971649"
       cy="183.15845"
       rx="5.9867492"
       ry="5.2280908" />
  </g>
  <g
     inkscape:groupmode="layer"
     id="layer2"
     inkscape:label="Capa 2"
     transform="translate(-52.556345,-212.15592)">
    <g
       id="g697"
       style="fill:#b93ef6;fill-opacity:1">
      <rect
         style="fill:#b93ef6;stroke-width:0.264582;fill-opacity:1"
         id="rect1327-2"
         width="11.405202"
         height="11.412924"
         x="214.88963"
         y="94.34668"
         ry="5.7064619"
         rx="5.702601"
         transform="matrix(0.70524923,0.70895948,-0.70890104,0.70530797,1.1458334e-6,-9.3749995e-7)" />
      <rect
         style="fill:#b93ef6;stroke-width:0.264583;fill-opacity:1"
         id="rect1327"
         width="10.170749"
         height="10.177628"
         x="239.4727"
         y="90.898567"
         ry="5.0888138"
         rx="5.0853744"
         transform="matrix(0.70519999,0.70900843,-0.70885206,0.70535718,1.1458334e-6,-9.3749995e-7)" />
      <rect
         style="fill:#b93ef6;stroke-width:0.264582;fill-opacity:1"
         id="rect572"
         width="5.6205955"
         height="5.6244001"
         x="216.78899"
         y="81.66777"
         ry="5.7064619"
         rx="5.7026005"
         transform="matrix(0.70524923,0.70895948,-0.70890104,0.70530797,1.1458334e-6,-9.3749995e-7)" />
      <rect
         style="fill:#b93ef6;stroke-width:0.264582;fill-opacity:1"
         id="rect574"
         width="5.6205955"
         height="5.6244001"
         x="244.30257"
         y="81.685173"
         ry="5.7064619"
         rx="5.7026005"
         transform="matrix(0.70524923,0.70895948,-0.70890104,0.70530797,1.1458334e-6,-9.3749995e-7)" />
      <rect
         style="fill:#b93ef6;stroke-width:0.264582;fill-opacity:1"
         id="rect576"
         width="5.6205955"
         height="5.6244001"
         x="202.43456"
         y="95.668976"
         ry="5.7064619"
         rx="5.7026005"
         transform="matrix(0.70524923,0.70895948,-0.70890104,0.70530797,1.1458334e-6,-9.3749995e-7)" />
      <rect
         style="fill:#b93ef6;stroke-width:0.264582;fill-opacity:1"
         id="rect578"
         width="5.6205955"
         height="5.6244001"
         x="202.44733"
         y="123.2812"
         ry="5.7064619"
         rx="5.7026005"
         transform="matrix(0.70524923,0.70895948,-0.70890104,0.70530797,1.1458334e-6,-9.3749995e-7)" />
      <path
         style="fill:#b93ef6;stroke-width:0.264583;fill-opacity:1"
         d="m 84.648126,248.75752 -19.843382,-19.84338 -7.936946,7.93695 -3.968862,-3.96886 19.844155,-19.84416 3.968798,3.9688 -7.937074,7.93708 19.843379,19.84338 z"
         id="path1267" />
      <path
         style="fill:#b93ef6;stroke-width:0.264583;fill-opacity:1"
         d="m 80.856368,244.77894 19.881672,-19.80502 -7.921614,-7.95226 3.97652,-3.96119 19.805794,19.88245 -3.97646,3.96112 -7.92173,-7.95239 -19.881668,19.80502 z"
         id="path1269" />
      <path
         style="fill:#b93ef6;stroke-width:0.264583;fill-opacity:1"
         d="m 102.8365,230.67292 1.83554,-1.81641 1.74969,1.75181 c 0.96233,0.96349 1.74194,1.75956 1.73247,1.76903 -0.009,0.009 -0.14199,-0.0603 -0.29449,-0.15499 -1.52519,-0.9474 -3.41083,-1.1699 -5.12243,-0.60444 -0.43231,0.14282 -1.05903,0.44674 -1.42143,0.68932 -0.15148,0.10139 -0.2843,0.18384 -0.29516,0.18322 -0.0109,-6.1e-4 0.80625,-0.81851 1.81581,-1.81754 z"
         id="path510" />
      <path
         style="fill:#b93ef6;stroke-width:0.264583;fill-opacity:1"
         d="m 98.981146,223.17272 1.816424,1.83555 -1.751814,1.74969 c -0.9635,0.96233 -1.75956,1.74194 -1.76904,1.73247 -0.009,-0.009 0.0603,-0.142 0.155,-0.29449 0.94739,-1.5252 1.16989,-3.41083 0.60443,-5.12244 -0.14282,-0.43231 -0.44674,-1.05902 -0.68931,-1.42143 -0.10139,-0.15148 -0.18384,-0.2843 -0.18323,-0.29516 6.1e-4,-0.0109 0.81851,0.80626 1.81754,1.81581 z"
         id="path512" />
      <path
         style="fill:#b93ef6;stroke-width:0.264583;fill-opacity:1"
         d="m 70.5409,226.77452 -1.81642,-1.83555 1.75181,-1.74969 c 0.9635,-0.96233 1.75956,-1.74194 1.76904,-1.73247 0.009,0.009 -0.0603,0.142 -0.155,0.29449 -0.94739,1.5252 -1.16989,3.41083 -0.60443,5.12244 0.14282,0.43231 0.44674,1.05902 0.68931,1.42143 0.10139,0.15148 0.18384,0.2843 0.18323,0.29516 -6.1e-4,0.0109 -0.81851,-0.80626 -1.81754,-1.81581 z"
         id="path512-6" />
      <path
         style="fill:#b93ef6;stroke-width:0.264583;fill-opacity:1"
         d="m 62.955949,230.67493 1.83555,-1.81642 1.74969,1.75181 c 0.96233,0.9635 1.74194,1.75956 1.73247,1.76904 -0.009,0.009 -0.142,-0.0603 -0.29449,-0.155 -1.5252,-0.94739 -3.41083,-1.16989 -5.12244,-0.60443 -0.43231,0.14282 -1.05902,0.44674 -1.42143,0.68931 -0.15148,0.10139 -0.2843,0.18384 -0.29516,0.18323 -0.0109,-6.1e-4 0.80626,-0.81851 1.81581,-1.81754 z"
         id="path568" />
      <path
         style="fill:#b93ef6;stroke-width:0.264583;fill-opacity:1"
         d="m 86.57717,239.26524 -1.83555,1.81642 -1.74969,-1.75181 c -0.96233,-0.9635 -1.74194,-1.75956 -1.73247,-1.76904 0.009,-0.009 0.142,0.0603 0.29449,0.155 1.5252,0.94739 3.41083,1.16989 5.12244,0.60443 0.43231,-0.14282 1.05902,-0.44674 1.42143,-0.68931 0.15148,-0.10139 0.2843,-0.18384 0.29516,-0.18323 0.0109,6.1e-4 -0.80626,0.81851 -1.81581,1.81754 z"
         id="path570" />
      <path
         style="fill:#b93ef6;stroke-width:0.264583;fill-opacity:1"
         d="m 86.565753,247.06781 -1.83555,1.81642 -1.74969,-1.75181 c -0.96233,-0.9635 -1.74194,-1.75956 -1.73247,-1.76904 0.009,-0.009 0.142,0.0603 0.29449,0.155 1.5252,0.94739 3.41083,1.16989 5.12244,0.60443 0.43231,-0.14282 1.05902,-0.44674 1.42143,-0.68931 0.15148,-0.10139 0.2843,-0.18384 0.29516,-0.18323 0.0109,6.1e-4 -0.80626,0.81851 -1.81581,1.81754 z"
         id="path580" />
    </g>
  </g>
</svg>
